ply
format ascii 1.0
comment Created by Blender 2.79 (sub 0) - www.blender.org, source file: ''
element vertex 360
property float x
property float y
property float z
property float nx
property float ny
property float nz
property uchar red
property uchar green
property uchar blue
element face 244
property list uchar uint vertex_indices
end_header
-0.007500 -0.009000 0.005000 -0.000000 -1.000000 -0.000000 243 255 251
0.007500 -0.009000 0.005000 -0.000000 -1.000000 -0.000000 243 255 251
-0.007500 -0.009000 0.065000 -0.000000 -1.000000 -0.000000 243 255 251
0.007500 -0.009000 0.065000 -0.000000 -1.000000 0.000000 243 255 251
0.007500 0.009000 0.005000 0.000000 1.000000 0.000000 243 255 251
-0.007500 0.009000 0.005000 0.000000 1.000000 0.000000 243 255 251
0.007500 0.009000 0.065000 0.000000 1.000000 0.000000 243 255 251
-0.007500 0.009000 0.065000 -0.000000 1.000000 0.000000 243 255 251
0.003031 0.021750 0.005000 0.000000 0.000000 1.000000 243 255 251
0.003381 0.020906 0.005000 0.000000 0.000000 1.000000 243 255 251
0.007500 0.027500 0.005000 0.000000 0.000000 1.000000 243 255 251
0.003500 0.020000 0.005000 0.000000 0.000000 1.000000 243 255 251
0.007500 0.009000 0.005000 0.000000 0.000000 1.000000 243 255 251
0.003381 0.019094 0.005000 0.000000 -0.000000 1.000000 243 255 251
0.003031 0.018250 0.005000 0.000000 -0.000000 1.000000 243 255 251
0.002475 0.017525 0.005000 0.000000 -0.000000 1.000000 243 255 251
-0.002475 0.017525 0.005000 0.000000 0.000000 1.000000 243 255 251
-0.007500 0.009000 0.005000 0.000000 0.000000 1.000000 243 255 251
-0.001750 0.016969 0.005000 0.000000 0.000000 1.000000 243 255 251
-0.000906 0.016619 0.005000 0.000000 0.000000 1.000000 243 255 251
-0.003381 0.020906 0.005000 0.000000 -0.000000 1.000000 243 255 251
-0.003031 0.021750 0.005000 0.000000 -0.000000 1.000000 243 255 251
-0.007500 0.027500 0.005000 0.000000 -0.000000 1.000000 243 255 251
-0.002475 0.022475 0.005000 0.000000 -0.000000 1.000000 243 255 251
0.000906 0.023381 0.005000 0.000000 0.000000 1.000000 243 255 251
0.001750 0.023031 0.005000 0.000000 0.000000 1.000000 243 255 251
0.002475 0.022475 0.005000 0.000000 0.000000 1.000000 243 255 251
0.001750 0.016969 0.005000 0.000000 -0.000000 1.000000 243 255 251
0.000906 0.016619 0.005000 0.000000 -0.000000 1.000000 243 255 251
-0.000000 0.016500 0.005000 -0.000000 0.000000 1.000000 243 255 251
-0.003031 0.018250 0.005000 0.000000 0.000000 1.000000 243 255 251
-0.003381 0.019094 0.005000 0.000000 0.000000 1.000000 243 255 251
-0.003500 0.020000 0.005000 0.000000 0.000000 1.000000 243 255 251
-0.001750 0.023031 0.005000 0.000000 -0.000000 1.000000 243 255 251
-0.000906 0.023381 0.005000 0.000000 -0.000000 1.000000 243 255 251
-0.000000 0.023500 0.005000 -0.000000 0.000000 1.000000 243 255 251
-0.007500 0.027500 0.005000 0.000000 1.000000 -0.000000 243 255 251
0.007500 0.027500 0.005000 0.000000 1.000000 -0.000000 243 255 251
-0.007500 0.027500 0.000000 0.000000 1.000000 -0.000000 243 255 251
0.007500 0.027500 -0.000000 0.000000 1.000000 -0.000000 243 255 251
-0.007500 -0.009000 0.065000 -1.000000 -0.000000 0.000000 243 255 251
-0.007500 -0.027500 0.065000 -1.000000 -0.000000 0.000000 243 255 251
-0.007500 -0.027500 0.125000 -1.000000 -0.000000 0.000000 243 255 251
-0.007500 0.027500 0.000000 -1.000000 -0.000000 0.000000 243 255 251
-0.007500 -0.027500 0.000000 -1.000000 -0.000000 0.000000 243 255 251
-0.007500 -0.009000 0.005000 -1.000000 -0.000000 0.000000 243 255 251
-0.007500 -0.027500 0.005000 -1.000000 -0.000000 -0.000000 243 255 251
-0.007500 0.027500 0.125000 -1.000000 -0.000000 0.000000 243 255 251
-0.007500 0.027500 0.065000 -1.000000 -0.000000 0.000000 243 255 251
-0.007500 0.009000 0.065000 -1.000000 -0.000000 0.000000 243 255 251
-0.007500 0.027500 0.005000 -1.000000 -0.000000 0.000000 243 255 251
-0.007500 0.009000 0.005000 -1.000000 -0.000000 0.000000 243 255 251
0.007500 -0.027500 0.005000 0.000000 -1.000000 0.000000 243 255 251
-0.007500 -0.027500 0.005000 0.000000 -1.000000 0.000000 243 255 251
0.007500 -0.027500 -0.000000 0.000000 -1.000000 0.000000 243 255 251
-0.007500 -0.027500 0.000000 0.000000 -1.000000 0.000000 243 255 251
0.007500 0.009000 0.065000 1.000000 0.000000 -0.000000 243 255 251
0.007500 0.027500 0.065000 1.000000 0.000000 -0.000000 243 255 251
0.007500 0.027500 0.125000 1.000000 0.000000 -0.000000 243 255 251
0.007500 -0.027500 -0.000000 1.000000 0.000000 -0.000000 243 255 251
0.007500 0.027500 -0.000000 1.000000 0.000000 -0.000000 243 255 251
0.007500 0.009000 0.005000 1.000000 0.000000 -0.000000 243 255 251
0.007500 0.027500 0.005000 1.000000 0.000000 -0.000000 243 255 251
0.007500 -0.027500 0.125000 1.000000 0.000000 -0.000000 243 255 251
0.007500 -0.027500 0.065000 1.000000 0.000000 -0.000000 243 255 251
0.007500 -0.009000 0.065000 1.000000 0.000000 -0.000000 243 255 251
0.007500 -0.027500 0.005000 1.000000 0.000000 -0.000000 243 255 251
0.007500 -0.009000 0.005000 1.000000 0.000000 -0.000000 243 255 251
0.003500 -0.020000 0.005000 0.000000 -0.000000 1.000000 243 255 251
0.003381 -0.020906 0.005000 0.000000 -0.000000 1.000000 243 255 251
0.007500 -0.027500 0.005000 0.000000 -0.000000 1.000000 243 255 251
0.003031 -0.021750 0.005000 0.000000 -0.000000 1.000000 243 255 251
0.002475 -0.022475 0.005000 0.000000 -0.000000 1.000000 243 255 251
0.003381 -0.019094 0.005000 0.000000 0.000000 1.000000 243 255 251
0.007500 -0.009000 0.005000 0.000000 0.000000 1.000000 243 255 251
0.003031 -0.018250 0.005000 0.000000 0.000000 1.000000 243 255 251
-0.000906 -0.023381 0.005000 0.000000 0.000000 1.000000 243 255 251
-0.001750 -0.023031 0.005000 0.000000 0.000000 1.000000 243 255 251
-0.007500 -0.027500 0.005000 0.000000 0.000000 1.000000 243 255 251
-0.002475 -0.022475 0.005000 0.000000 0.000000 1.000000 243 255 251
-0.003031 -0.021750 0.005000 0.000000 0.000000 1.000000 243 255 251
-0.007500 -0.009000 0.005000 0.000000 -0.000000 1.000000 243 255 251
-0.003031 -0.018250 0.005000 0.000000 -0.000000 1.000000 243 255 251
-0.002475 -0.017525 0.005000 0.000000 -0.000000 1.000000 243 255 251
0.000906 -0.016619 0.005000 0.000000 0.000000 1.000000 243 255 251
0.001750 -0.016969 0.005000 0.000000 0.000000 1.000000 243 255 251
0.002475 -0.017525 0.005000 0.000000 0.000000 1.000000 243 255 251
0.001750 -0.023031 0.005000 0.000000 -0.000000 1.000000 243 255 251
0.000906 -0.023381 0.005000 0.000000 -0.000000 1.000000 243 255 251
0.000000 -0.023500 0.005000 -0.000000 0.000000 1.000000 243 255 251
-0.001750 -0.016969 0.005000 0.000000 -0.000000 1.000000 243 255 251
-0.000906 -0.016619 0.005000 0.000000 -0.000000 1.000000 243 255 251
0.000000 -0.016500 0.005000 -0.000000 0.000000 1.000000 243 255 251
-0.003381 -0.020906 0.005000 0.000000 0.000000 1.000000 243 255 251
-0.003500 -0.020000 0.005000 0.000000 0.000000 1.000000 243 255 251
-0.003381 -0.019094 0.005000 0.000000 -0.000000 1.000000 243 255 251
-0.002475 -0.017525 0.000000 -0.000000 -0.000000 -1.000000 243 255 251
-0.003031 -0.018250 0.000000 -0.000000 -0.000000 -1.000000 243 255 251
-0.002475 0.017525 0.000000 -0.000000 -0.000000 -1.000000 243 255 251
-0.007500 -0.027500 0.000000 -0.000000 -0.000000 -1.000000 243 255 251
-0.003500 -0.020000 0.000000 -0.000000 -0.000000 -1.000000 243 255 251
-0.003381 -0.020906 0.000000 -0.000000 -0.000000 -1.000000 243 255 251
-0.000906 0.016619 0.000000 -0.000000 0.000000 -1.000000 243 255 251
0.003500 -0.020000 -0.000000 -0.000000 0.000000 -1.000000 243 255 251
0.003381 -0.019094 -0.000000 -0.000000 0.000000 -1.000000 243 255 251
-0.003381 -0.019094 0.000000 -0.000000 0.000000 -1.000000 243 255 251
-0.007500 0.027500 0.000000 -0.000000 -0.000000 -1.000000 243 255 251
0.007500 -0.027500 -0.000000 -0.000000 -0.000000 -1.000000 243 255 251
0.001750 -0.023031 -0.000000 -0.000000 -0.000000 -1.000000 243 255 251
0.002475 -0.022475 -0.000000 -0.000000 -0.000000 -1.000000 243 255 251
-0.003381 0.020906 0.000000 -0.000000 0.000000 -1.000000 243 255 251
-0.003500 0.020000 0.000000 -0.000000 0.000000 -1.000000 243 255 251
-0.003381 0.019094 0.000000 -0.000000 -0.000000 -1.000000 243 255 251
-0.003031 0.018250 0.000000 -0.000000 -0.000000 -1.000000 243 255 251
-0.003031 -0.021750 0.000000 -0.000000 0.000000 -1.000000 243 255 251
-0.002475 -0.022475 0.000000 -0.000000 -0.000000 -1.000000 243 255 251
-0.001750 -0.023031 0.000000 -0.000000 -0.000000 -1.000000 243 255 251
0.003031 -0.018250 -0.000000 -0.000000 0.000000 -1.000000 243 255 251
0.002475 -0.017525 -0.000000 -0.000000 -0.000000 -1.000000 243 255 251
0.001750 -0.016969 -0.000000 -0.000000 -0.000000 -1.000000 243 255 251
-0.000906 -0.023381 0.000000 -0.000000 0.000000 -1.000000 243 255 251
0.000000 -0.023500 0.000000 -0.000000 -0.000000 -1.000000 243 255 251
0.000906 -0.023381 -0.000000 -0.000000 -0.000000 -1.000000 243 255 251
0.002475 0.017525 -0.000000 -0.000000 -0.000000 -1.000000 243 255 251
0.003031 0.018250 -0.000000 -0.000000 -0.000000 -1.000000 243 255 251
0.003381 0.019094 -0.000000 -0.000000 -0.000000 -1.000000 243 255 251
0.007500 0.027500 -0.000000 -0.000000 -0.000000 -1.000000 243 255 251
0.003500 0.020000 -0.000000 -0.000000 0.000000 -1.000000 243 255 251
0.003381 0.020906 -0.000000 -0.000000 -0.000000 -1.000000 243 255 251
0.003031 0.021750 -0.000000 -0.000000 0.000000 -1.000000 243 255 251
0.002475 0.022475 -0.000000 -0.000000 -0.000000 -1.000000 243 255 251
0.001750 0.023031 -0.000000 -0.000000 -0.000000 -1.000000 243 255 251
0.003031 -0.021750 -0.000000 -0.000000 0.000000 -1.000000 243 255 251
0.003381 -0.020906 -0.000000 -0.000000 -0.000000 -1.000000 243 255 251
-0.000000 0.016500 0.000000 -0.000000 -0.000000 -1.000000 243 255 251
0.000906 0.016619 -0.000000 -0.000000 -0.000000 -1.000000 243 255 251
0.001750 0.016969 -0.000000 -0.000000 -0.000000 -1.000000 243 255 251
-0.001750 0.023031 0.000000 -0.000000 -0.000000 -1.000000 243 255 251
-0.002475 0.022475 0.000000 -0.000000 -0.000000 -1.000000 243 255 251
-0.003031 0.021750 0.000000 -0.000000 0.000000 -1.000000 243 255 251
0.000906 0.023381 -0.000000 -0.000000 -0.000000 -1.000000 243 255 251
-0.000000 0.023500 0.000000 -0.000000 -0.000000 -1.000000 243 255 251
-0.000906 0.023381 0.000000 -0.000000 -0.000000 -1.000000 243 255 251
0.000906 -0.016619 -0.000000 -0.000000 -0.000000 -1.000000 243 255 251
0.000000 -0.016500 0.000000 -0.000000 -0.000000 -1.000000 243 255 251
-0.001750 0.016969 0.000000 -0.000000 -0.000000 -1.000000 243 255 251
-0.000906 -0.016619 0.000000 -0.000000 -0.000000 -1.000000 243 255 251
-0.001750 -0.016969 0.000000 -0.000000 -0.000000 -1.000000 243 255 251
0.003500 -0.020000 -0.000000 -0.991484 -0.130228 0.000000 243 255 251
0.003500 -0.020000 0.005000 -0.991484 -0.130228 0.000000 243 255 251
0.003381 -0.019094 -0.000000 -0.991484 -0.130228 0.000000 243 255 251
0.003381 -0.019094 0.005000 -0.991484 -0.130228 0.000000 243 255 251
0.003381 -0.019094 -0.000000 -0.923723 -0.383061 0.000000 243 255 251
0.003381 -0.019094 0.005000 -0.923723 -0.383061 0.000000 243 255 251
0.003031 -0.018250 -0.000000 -0.923723 -0.383061 0.000000 243 255 251
0.003031 -0.018250 0.005000 -0.923723 -0.383061 0.000000 243 255 251
0.003031 -0.018250 -0.000000 -0.793518 -0.608547 0.000000 243 255 251
0.003031 -0.018250 0.005000 -0.793518 -0.608547 0.000000 243 255 251
0.002475 -0.017525 -0.000000 -0.793518 -0.608547 0.000000 243 255 251
0.002475 -0.017525 0.005000 -0.793518 -0.608547 0.000000 243 255 251
0.002475 -0.017525 -0.000000 -0.608546 -0.793518 0.000000 243 255 251
0.002475 -0.017525 0.005000 -0.608546 -0.793518 0.000000 243 255 251
0.001750 -0.016969 -0.000000 -0.608546 -0.793518 0.000000 243 255 251
0.001750 -0.016969 0.005000 -0.608546 -0.793518 0.000000 243 255 251
0.001750 -0.016969 -0.000000 -0.383061 -0.923723 0.000000 243 255 251
0.001750 -0.016969 0.005000 -0.383061 -0.923723 0.000000 243 255 251
0.000906 -0.016619 -0.000000 -0.383061 -0.923723 0.000000 243 255 251
0.000906 -0.016619 0.005000 -0.383061 -0.923723 0.000000 243 255 251
0.000906 -0.016619 -0.000000 -0.130229 -0.991484 0.000000 243 255 251
0.000906 -0.016619 0.005000 -0.130229 -0.991484 0.000000 243 255 251
0.000000 -0.016500 0.000000 -0.130229 -0.991484 0.000000 243 255 251
0.000000 -0.016500 0.005000 -0.130229 -0.991484 0.000000 243 255 251
0.000000 -0.016500 0.000000 0.130229 -0.991484 -0.000000 243 255 251
0.000000 -0.016500 0.005000 0.130229 -0.991484 -0.000000 243 255 251
-0.000906 -0.016619 0.000000 0.130229 -0.991484 -0.000000 243 255 251
-0.000906 -0.016619 0.005000 0.130229 -0.991484 -0.000000 243 255 251
-0.000906 -0.016619 0.000000 0.383061 -0.923723 -0.000000 243 255 251
-0.000906 -0.016619 0.005000 0.383061 -0.923723 -0.000000 243 255 251
-0.001750 -0.016969 0.000000 0.383061 -0.923723 -0.000000 243 255 251
-0.001750 -0.016969 0.005000 0.383061 -0.923723 -0.000000 243 255 251
-0.001750 -0.016969 0.000000 0.608546 -0.793518 -0.000000 243 255 251
-0.001750 -0.016969 0.005000 0.608546 -0.793518 -0.000000 243 255 251
-0.002475 -0.017525 0.000000 0.608546 -0.793518 -0.000000 243 255 251
-0.002475 -0.017525 0.005000 0.608546 -0.793518 -0.000000 243 255 251
-0.002475 -0.017525 0.000000 0.793518 -0.608547 -0.000000 243 255 251
-0.002475 -0.017525 0.005000 0.793518 -0.608547 -0.000000 243 255 251
-0.003031 -0.018250 0.000000 0.793518 -0.608547 -0.000000 243 255 251
-0.003031 -0.018250 0.005000 0.793518 -0.608547 -0.000000 243 255 251
-0.003031 -0.018250 0.000000 0.923723 -0.383060 -0.000000 243 255 251
-0.003031 -0.018250 0.005000 0.923723 -0.383060 -0.000000 243 255 251
-0.003381 -0.019094 0.000000 0.923723 -0.383060 -0.000000 243 255 251
-0.003381 -0.019094 0.005000 0.923723 -0.383060 -0.000000 243 255 251
-0.003381 -0.019094 0.000000 0.991484 -0.130228 -0.000000 243 255 251
-0.003381 -0.019094 0.005000 0.991484 -0.130228 -0.000000 243 255 251
-0.003500 -0.020000 0.000000 0.991484 -0.130228 -0.000000 243 255 251
-0.003500 -0.020000 0.005000 0.991484 -0.130228 -0.000000 243 255 251
-0.003500 -0.020000 0.000000 0.991484 0.130228 -0.000000 243 255 251
-0.003500 -0.020000 0.005000 0.991484 0.130228 -0.000000 243 255 251
-0.003381 -0.020906 0.000000 0.991484 0.130228 -0.000000 243 255 251
-0.003381 -0.020906 0.005000 0.991484 0.130228 -0.000000 243 255 251
-0.003381 -0.020906 0.000000 0.923723 0.383061 -0.000000 243 255 251
-0.003381 -0.020906 0.005000 0.923723 0.383061 -0.000000 243 255 251
-0.003031 -0.021750 0.000000 0.923723 0.383061 -0.000000 243 255 251
-0.003031 -0.021750 0.005000 0.923723 0.383061 -0.000000 243 255 251
-0.003031 -0.021750 0.000000 0.793519 0.608546 -0.000000 243 255 251
-0.003031 -0.021750 0.005000 0.793519 0.608546 -0.000000 243 255 251
-0.002475 -0.022475 0.000000 0.793519 0.608546 -0.000000 243 255 251
-0.002475 -0.022475 0.005000 0.793519 0.608546 -0.000000 243 255 251
-0.002475 -0.022475 0.000000 0.608546 0.793518 -0.000000 243 255 251
-0.002475 -0.022475 0.005000 0.608546 0.793518 -0.000000 243 255 251
-0.001750 -0.023031 0.000000 0.608546 0.793518 -0.000000 243 255 251
-0.001750 -0.023031 0.005000 0.608546 0.793518 -0.000000 243 255 251
-0.001750 -0.023031 0.000000 0.383061 0.923723 -0.000000 243 255 251
-0.001750 -0.023031 0.005000 0.383061 0.923723 -0.000000 243 255 251
-0.000906 -0.023381 0.000000 0.383061 0.923723 -0.000000 243 255 251
-0.000906 -0.023381 0.005000 0.383061 0.923723 -0.000000 243 255 251
-0.000906 -0.023381 0.000000 0.130227 0.991484 -0.000000 243 255 251
-0.000906 -0.023381 0.005000 0.130227 0.991484 -0.000000 243 255 251
0.000000 -0.023500 0.000000 0.130227 0.991484 -0.000000 243 255 251
0.000000 -0.023500 0.005000 0.130227 0.991484 -0.000000 243 255 251
0.000000 -0.023500 0.000000 -0.130227 0.991484 0.000000 243 255 251
0.000000 -0.023500 0.005000 -0.130227 0.991484 0.000000 243 255 251
0.000906 -0.023381 -0.000000 -0.130227 0.991484 0.000000 243 255 251
0.000906 -0.023381 0.005000 -0.130227 0.991484 0.000000 243 255 251
0.000906 -0.023381 -0.000000 -0.383061 0.923723 0.000000 243 255 251
0.000906 -0.023381 0.005000 -0.383061 0.923723 0.000000 243 255 251
0.001750 -0.023031 -0.000000 -0.383061 0.923723 0.000000 243 255 251
0.001750 -0.023031 0.005000 -0.383061 0.923723 0.000000 243 255 251
0.001750 -0.023031 -0.000000 -0.608546 0.793518 0.000000 243 255 251
0.001750 -0.023031 0.005000 -0.608546 0.793518 0.000000 243 255 251
0.002475 -0.022475 -0.000000 -0.608546 0.793518 0.000000 243 255 251
0.002475 -0.022475 0.005000 -0.608546 0.793518 0.000000 243 255 251
0.002475 -0.022475 -0.000000 -0.793519 0.608546 0.000000 243 255 251
0.002475 -0.022475 0.005000 -0.793519 0.608546 0.000000 243 255 251
0.003031 -0.021750 -0.000000 -0.793519 0.608546 0.000000 243 255 251
0.003031 -0.021750 0.005000 -0.793519 0.608546 0.000000 243 255 251
0.003031 -0.021750 -0.000000 -0.923723 0.383061 0.000000 243 255 251
0.003031 -0.021750 0.005000 -0.923723 0.383061 0.000000 243 255 251
0.003381 -0.020906 -0.000000 -0.923723 0.383061 0.000000 243 255 251
0.003381 -0.020906 0.005000 -0.923723 0.383061 0.000000 243 255 251
0.003381 -0.020906 -0.000000 -0.991484 0.130228 0.000000 243 255 251
0.003381 -0.020906 0.005000 -0.991484 0.130228 0.000000 243 255 251
0.003500 -0.020000 -0.000000 -0.991484 0.130228 0.000000 243 255 251
0.003500 -0.020000 0.005000 -0.991484 0.130228 0.000000 243 255 251
0.003500 0.020000 -0.000000 -0.991484 -0.130228 0.000000 243 255 251
0.003500 0.020000 0.005000 -0.991484 -0.130228 0.000000 243 255 251
0.003381 0.020906 -0.000000 -0.991484 -0.130228 0.000000 243 255 251
0.003381 0.020906 0.005000 -0.991484 -0.130228 0.000000 243 255 251
0.003381 0.020906 -0.000000 -0.923723 -0.383061 0.000000 243 255 251
0.003381 0.020906 0.005000 -0.923723 -0.383061 0.000000 243 255 251
0.003031 0.021750 -0.000000 -0.923723 -0.383061 0.000000 243 255 251
0.003031 0.021750 0.005000 -0.923723 -0.383061 0.000000 243 255 251
0.003031 0.021750 -0.000000 -0.793519 -0.608546 0.000000 243 255 251
0.003031 0.021750 0.005000 -0.793519 -0.608546 0.000000 243 255 251
0.002475 0.022475 -0.000000 -0.793519 -0.608546 0.000000 243 255 251
0.002475 0.022475 0.005000 -0.793519 -0.608546 0.000000 243 255 251
0.002475 0.022475 -0.000000 -0.608546 -0.793518 0.000000 243 255 251
0.002475 0.022475 0.005000 -0.608546 -0.793518 0.000000 243 255 251
0.001750 0.023031 -0.000000 -0.608546 -0.793518 0.000000 243 255 251
0.001750 0.023031 0.005000 -0.608546 -0.793518 0.000000 243 255 251
0.001750 0.023031 -0.000000 -0.383061 -0.923723 0.000000 243 255 251
0.001750 0.023031 0.005000 -0.383061 -0.923723 0.000000 243 255 251
0.000906 0.023381 -0.000000 -0.383061 -0.923723 0.000000 243 255 251
0.000906 0.023381 0.005000 -0.383061 -0.923723 0.000000 243 255 251
0.000906 0.023381 -0.000000 -0.130227 -0.991484 0.000000 243 255 251
0.000906 0.023381 0.005000 -0.130227 -0.991484 0.000000 243 255 251
-0.000000 0.023500 0.000000 -0.130227 -0.991484 0.000000 243 255 251
-0.000000 0.023500 0.005000 -0.130227 -0.991484 0.000000 243 255 251
-0.000000 0.023500 0.000000 0.130227 -0.991484 -0.000000 243 255 251
-0.000000 0.023500 0.005000 0.130227 -0.991484 -0.000000 243 255 251
-0.000906 0.023381 0.000000 0.130227 -0.991484 -0.000000 243 255 251
-0.000906 0.023381 0.005000 0.130227 -0.991484 -0.000000 243 255 251
-0.000906 0.023381 0.000000 0.383061 -0.923723 -0.000000 243 255 251
-0.000906 0.023381 0.005000 0.383061 -0.923723 -0.000000 243 255 251
-0.001750 0.023031 0.000000 0.383061 -0.923723 -0.000000 243 255 251
-0.001750 0.023031 0.005000 0.383061 -0.923723 -0.000000 243 255 251
-0.001750 0.023031 0.000000 0.608546 -0.793518 -0.000000 243 255 251
-0.001750 0.023031 0.005000 0.608546 -0.793518 -0.000000 243 255 251
-0.002475 0.022475 0.000000 0.608546 -0.793518 -0.000000 243 255 251
-0.002475 0.022475 0.005000 0.608546 -0.793518 -0.000000 243 255 251
-0.002475 0.022475 0.000000 0.793519 -0.608546 -0.000000 243 255 251
-0.002475 0.022475 0.005000 0.793519 -0.608546 -0.000000 243 255 251
-0.003031 0.021750 0.000000 0.793519 -0.608546 -0.000000 243 255 251
-0.003031 0.021750 0.005000 0.793519 -0.608546 -0.000000 243 255 251
-0.003031 0.021750 0.000000 0.923723 -0.383061 -0.000000 243 255 251
-0.003031 0.021750 0.005000 0.923723 -0.383061 -0.000000 243 255 251
-0.003381 0.020906 0.000000 0.923723 -0.383061 -0.000000 243 255 251
-0.003381 0.020906 0.005000 0.923723 -0.383061 -0.000000 243 255 251
-0.003381 0.020906 0.000000 0.991484 -0.130228 -0.000000 243 255 251
-0.003381 0.020906 0.005000 0.991484 -0.130228 -0.000000 243 255 251
-0.003500 0.020000 0.000000 0.991484 -0.130228 -0.000000 243 255 251
-0.003500 0.020000 0.005000 0.991484 -0.130228 -0.000000 243 255 251
-0.003500 0.020000 0.000000 0.991484 0.130228 -0.000000 243 255 251
-0.003500 0.020000 0.005000 0.991484 0.130228 -0.000000 243 255 251
-0.003381 0.019094 0.000000 0.991484 0.130228 -0.000000 243 255 251
-0.003381 0.019094 0.005000 0.991484 0.130228 -0.000000 243 255 251
-0.003381 0.019094 0.000000 0.923723 0.383061 -0.000000 243 255 251
-0.003381 0.019094 0.005000 0.923723 0.383061 -0.000000 243 255 251
-0.003031 0.018250 0.000000 0.923723 0.383061 -0.000000 243 255 251
-0.003031 0.018250 0.005000 0.923723 0.383061 -0.000000 243 255 251
-0.003031 0.018250 0.000000 0.793518 0.608547 -0.000000 243 255 251
-0.003031 0.018250 0.005000 0.793518 0.608547 -0.000000 243 255 251
-0.002475 0.017525 0.000000 0.793518 0.608547 -0.000000 243 255 251
-0.002475 0.017525 0.005000 0.793518 0.608547 -0.000000 243 255 251
-0.002475 0.017525 0.000000 0.608546 0.793518 -0.000000 243 255 251
-0.002475 0.017525 0.005000 0.608546 0.793518 -0.000000 243 255 251
-0.001750 0.016969 0.000000 0.608546 0.793518 -0.000000 243 255 251
-0.001750 0.016969 0.005000 0.608546 0.793518 -0.000000 243 255 251
-0.001750 0.016969 0.000000 0.383061 0.923723 -0.000000 243 255 251
-0.001750 0.016969 0.005000 0.383061 0.923723 -0.000000 243 255 251
-0.000906 0.016619 0.000000 0.383061 0.923723 -0.000000 243 255 251
-0.000906 0.016619 0.005000 0.383061 0.923723 -0.000000 243 255 251
-0.000906 0.016619 0.000000 0.130229 0.991484 -0.000000 243 255 251
-0.000906 0.016619 0.005000 0.130229 0.991484 -0.000000 243 255 251
-0.000000 0.016500 0.000000 0.130229 0.991484 -0.000000 243 255 251
-0.000000 0.016500 0.005000 0.130229 0.991484 -0.000000 243 255 251
-0.000000 0.016500 0.000000 -0.130229 0.991484 0.000000 243 255 251
-0.000000 0.016500 0.005000 -0.130229 0.991484 0.000000 243 255 251
0.000906 0.016619 -0.000000 -0.130229 0.991484 0.000000 243 255 251
0.000906 0.016619 0.005000 -0.130229 0.991484 0.000000 243 255 251
0.000906 0.016619 -0.000000 -0.383061 0.923723 0.000000 243 255 251
0.000906 0.016619 0.005000 -0.383061 0.923723 0.000000 243 255 251
0.001750 0.016969 -0.000000 -0.383061 0.923723 0.000000 243 255 251
0.001750 0.016969 0.005000 -0.383061 0.923723 0.000000 243 255 251
0.001750 0.016969 -0.000000 -0.608546 0.793518 0.000000 243 255 251
0.001750 0.016969 0.005000 -0.608546 0.793518 0.000000 243 255 251
0.002475 0.017525 -0.000000 -0.608546 0.793518 0.000000 243 255 251
0.002475 0.017525 0.005000 -0.608546 0.793518 0.000000 243 255 251
0.002475 0.017525 -0.000000 -0.793518 0.608547 0.000000 243 255 251
0.002475 0.017525 0.005000 -0.793518 0.608547 0.000000 243 255 251
0.003031 0.018250 -0.000000 -0.793518 0.608547 0.000000 243 255 251
0.003031 0.018250 0.005000 -0.793518 0.608547 0.000000 243 255 251
0.003031 0.018250 -0.000000 -0.923723 0.383060 0.000000 243 255 251
0.003031 0.018250 0.005000 -0.923723 0.383060 0.000000 243 255 251
0.003381 0.019094 -0.000000 -0.923723 0.383060 0.000000 243 255 251
0.003381 0.019094 0.005000 -0.923723 0.383060 0.000000 243 255 251
0.003381 0.019094 -0.000000 -0.991484 0.130228 0.000000 243 255 251
0.003381 0.019094 0.005000 -0.991484 0.130228 0.000000 243 255 251
0.003500 0.020000 -0.000000 -0.991484 0.130228 0.000000 243 255 251
0.003500 0.020000 0.005000 -0.991484 0.130228 0.000000 243 255 251
-0.007500 0.027500 0.125000 0.000000 0.000000 1.000000 243 255 251
-0.007500 -0.027500 0.125000 0.000000 0.000000 1.000000 243 255 251
0.007500 0.027500 0.125000 0.000000 0.000000 1.000000 243 255 251
0.007500 -0.027500 0.125000 0.000000 -0.000000 1.000000 243 255 251
-0.007500 0.027500 0.065000 0.000000 0.000000 -1.000000 243 255 251
0.007500 0.027500 0.065000 0.000000 0.000000 -1.000000 243 255 251
-0.007500 0.009000 0.065000 0.000000 0.000000 -1.000000 243 255 251
0.007500 0.009000 0.065000 -0.000000 0.000000 -1.000000 243 255 251
-0.007500 0.027500 0.065000 0.000000 1.000000 0.000000 243 255 251
-0.007500 0.027500 0.125000 0.000000 1.000000 0.000000 243 255 251
0.007500 0.027500 0.065000 0.000000 1.000000 0.000000 243 255 251
0.007500 0.027500 0.125000 0.000000 1.000000 0.000000 243 255 251
0.007500 -0.027500 0.065000 0.000000 -0.000000 -1.000000 243 255 251
-0.007500 -0.027500 0.065000 0.000000 -0.000000 -1.000000 243 255 251
0.007500 -0.009000 0.065000 0.000000 -0.000000 -1.000000 243 255 251
-0.007500 -0.009000 0.065000 0.000000 0.000000 -1.000000 243 255 251
0.007500 -0.027500 0.065000 0.000000 -1.000000 -0.000000 243 255 251
0.007500 -0.027500 0.125000 0.000000 -1.000000 -0.000000 243 255 251
-0.007500 -0.027500 0.065000 0.000000 -1.000000 -0.000000 243 255 251
-0.007500 -0.027500 0.125000 0.000000 -1.000000 -0.000000 243 255 251
3 0 1 2
3 2 1 3
3 4 5 6
3 6 5 7
3 8 9 10
3 10 9 11
3 10 11 12
3 11 13 12
3 12 13 14
3 12 14 15
3 16 17 18
3 18 17 19
3 20 21 22
3 22 21 23
3 24 25 10
3 10 25 26
3 10 26 8
3 15 27 12
3 12 27 28
3 12 28 17
3 17 28 29
3 17 29 19
3 16 30 17
3 17 30 31
3 17 31 22
3 22 31 32
3 22 32 20
3 23 33 22
3 22 33 34
3 22 34 10
3 10 34 35
3 10 35 24
3 36 37 38
3 38 37 39
3 40 41 42
3 43 44 45
3 45 44 46
3 47 48 49
3 50 43 51
3 51 43 45
3 51 45 49
3 49 45 40
3 49 40 47
3 47 40 42
3 52 53 54
3 53 55 54
3 56 57 58
3 59 60 61
3 61 60 62
3 63 64 65
3 66 59 67
3 67 59 61
3 67 61 65
3 65 61 56
3 65 56 63
3 63 56 58
3 68 69 70
3 70 69 71
3 70 71 72
3 68 70 73
3 73 70 74
3 73 74 75
3 76 77 78
3 78 77 79
3 78 79 80
3 81 82 83
3 84 85 74
3 74 85 86
3 74 86 75
3 72 87 70
3 70 87 88
3 70 88 78
3 78 88 89
3 78 89 76
3 83 90 81
3 81 90 91
3 81 91 74
3 74 91 92
3 74 92 84
3 80 93 78
3 78 93 94
3 78 94 81
3 81 94 95
3 81 95 82
3 96 97 98
3 99 100 101
3 102 103 104
3 100 99 105
3 105 99 106
3 105 106 97
3 107 108 109
3 110 111 106
3 106 111 112
3 106 112 97
3 97 112 113
3 97 113 98
3 114 99 101
3 99 114 115
3 99 115 116
3 104 117 102
3 102 117 118
3 102 118 119
3 120 99 116
3 99 120 121
3 99 121 107
3 107 121 122
3 107 122 108
3 123 124 107
3 107 124 125
3 107 125 126
3 126 125 127
3 126 127 128
3 128 129 126
3 126 129 130
3 126 130 131
3 109 132 107
3 107 132 133
3 107 133 103
3 102 134 103
3 103 134 135
3 103 135 107
3 107 135 136
3 107 136 123
3 137 138 106
3 106 138 139
3 106 139 110
3 131 140 126
3 126 140 141
3 126 141 106
3 106 141 142
3 106 142 137
3 119 143 102
3 102 143 144
3 102 144 145
3 145 144 146
3 145 146 98
3 98 146 147
3 98 147 96
3 148 149 150
3 150 149 151
3 152 153 154
3 154 153 155
3 156 157 158
3 158 157 159
3 160 161 162
3 162 161 163
3 164 165 166
3 166 165 167
3 168 169 170
3 170 169 171
3 172 173 174
3 174 173 175
3 176 177 178
3 178 177 179
3 180 181 182
3 182 181 183
3 184 185 186
3 186 185 187
3 188 189 190
3 190 189 191
3 192 193 194
3 194 193 195
3 196 197 198
3 198 197 199
3 200 201 202
3 202 201 203
3 204 205 206
3 206 205 207
3 208 209 210
3 210 209 211
3 212 213 214
3 214 213 215
3 216 217 218
3 218 217 219
3 220 221 222
3 222 221 223
3 224 225 226
3 226 225 227
3 228 229 230
3 230 229 231
3 232 233 234
3 234 233 235
3 236 237 238
3 238 237 239
3 240 241 242
3 242 241 243
3 244 245 246
3 246 245 247
3 248 249 250
3 250 249 251
3 252 253 254
3 254 253 255
3 256 257 258
3 258 257 259
3 260 261 262
3 262 261 263
3 264 265 266
3 266 265 267
3 268 269 270
3 270 269 271
3 272 273 274
3 274 273 275
3 276 277 278
3 278 277 279
3 280 281 282
3 282 281 283
3 284 285 286
3 286 285 287
3 288 289 290
3 290 289 291
3 292 293 294
3 294 293 295
3 296 297 298
3 298 297 299
3 300 301 302
3 302 301 303
3 304 305 306
3 306 305 307
3 308 309 310
3 310 309 311
3 312 313 314
3 314 313 315
3 316 317 318
3 318 317 319
3 320 321 322
3 322 321 323
3 324 325 326
3 326 325 327
3 328 329 330
3 330 329 331
3 332 333 334
3 334 333 335
3 336 337 338
3 338 337 339
3 340 341 342
3 342 341 343
3 344 345 346
3 346 345 347
3 348 349 350
3 350 349 351
3 352 353 354
3 354 353 355
3 356 357 358
3 358 357 359
