ply
format ascii 1.0
comment Created by Blender 2.79 (sub 0) - www.blender.org, source file: ''
element vertex 204
property float x
property float y
property float z
property float nx
property float ny
property float nz
property uchar red
property uchar green
property uchar blue
element face 136
property list uchar uint vertex_indices
end_header
-0.007500 -0.005000 0.018000 0.000000 0.000000 -1.000000 255 53 24
0.007500 -0.005000 0.018000 0.000000 0.000000 -1.000000 255 53 24
-0.007500 -0.020000 0.018000 0.000000 0.000000 -1.000000 255 53 24
0.007500 -0.020000 0.018000 -0.000000 0.000000 -1.000000 255 53 24
-0.007500 -0.005000 -0.000000 -0.000000 -1.000000 -0.000000 255 53 24
0.007500 -0.005000 0.000000 -0.000000 -1.000000 -0.000000 255 53 24
-0.007500 -0.005000 0.018000 -0.000000 -1.000000 -0.000000 255 53 24
0.007500 -0.005000 0.018000 -0.000000 -1.000000 -0.000000 255 53 24
0.007500 -0.005000 0.000000 1.000000 0.000000 0.000000 255 53 24
0.007500 0.005000 0.000000 1.000000 0.000000 0.000000 255 53 24
0.007500 -0.005000 0.018000 1.000000 0.000000 0.000000 255 53 24
0.007500 0.005000 0.023000 1.000000 -0.000000 0.000000 255 53 24
0.007500 -0.020000 0.018000 1.000000 -0.000000 0.000000 255 53 24
0.007500 -0.030000 0.023000 1.000000 -0.000000 0.000000 255 53 24
0.007500 -0.020000 -0.002000 1.000000 -0.000000 0.000000 255 53 24
0.007500 -0.030000 0.003000 1.000000 -0.000000 0.000000 255 53 24
0.007500 -0.085000 -0.002000 1.000000 -0.000000 0.000000 255 53 24
0.007500 -0.085000 0.003000 1.000000 -0.000000 0.000000 255 53 24
-0.007500 0.005000 0.023000 0.000000 1.000000 0.000000 255 53 24
0.007500 0.005000 0.023000 0.000000 1.000000 0.000000 255 53 24
-0.007500 0.005000 -0.000000 0.000000 1.000000 0.000000 255 53 24
0.007500 0.005000 0.000000 0.000000 1.000000 0.000000 255 53 24
-0.007500 0.005000 -0.000000 -1.000000 0.000000 -0.000000 255 53 24
-0.007500 -0.005000 -0.000000 -1.000000 0.000000 -0.000000 255 53 24
-0.007500 0.005000 0.023000 -1.000000 0.000000 -0.000000 255 53 24
-0.007500 -0.005000 0.018000 -1.000000 0.000000 -0.000000 255 53 24
-0.007500 -0.030000 0.023000 -1.000000 0.000000 -0.000000 255 53 24
-0.007500 -0.020000 0.018000 -1.000000 0.000000 0.000000 255 53 24
-0.007500 -0.030000 0.003000 -1.000000 0.000000 -0.000000 255 53 24
-0.007500 -0.020000 -0.002000 -1.000000 0.000000 -0.000000 255 53 24
-0.007500 -0.085000 0.003000 -1.000000 0.000000 -0.000000 255 53 24
-0.007500 -0.085000 -0.002000 -1.000000 0.000000 0.000000 255 53 24
0.007500 -0.030000 0.023000 -0.000000 0.000000 1.000000 255 53 24
0.007500 0.005000 0.023000 -0.000000 0.000000 1.000000 255 53 24
-0.007500 -0.030000 0.023000 -0.000000 0.000000 1.000000 255 53 24
-0.007500 0.005000 0.023000 0.000000 0.000000 1.000000 255 53 24
-0.007500 0.005000 -0.000000 0.000000 0.000000 -1.000000 255 53 24
0.007500 0.005000 0.000000 0.000000 0.000000 -1.000000 255 53 24
-0.007500 -0.005000 -0.000000 0.000000 0.000000 -1.000000 255 53 24
0.007500 -0.005000 0.000000 0.000000 0.000000 -1.000000 255 53 24
0.007500 -0.030000 0.023000 0.000000 -1.000000 0.000000 255 53 24
-0.007500 -0.030000 0.023000 0.000000 -1.000000 0.000000 255 53 24
0.007500 -0.030000 0.003000 0.000000 -1.000000 0.000000 255 53 24
-0.007500 -0.030000 0.003000 0.000000 -1.000000 0.000000 255 53 24
0.007500 -0.020000 -0.002000 -0.000000 1.000000 0.000000 255 53 24
-0.007500 -0.020000 -0.002000 -0.000000 1.000000 0.000000 255 53 24
0.007500 -0.020000 0.018000 -0.000000 1.000000 0.000000 255 53 24
-0.007500 -0.020000 0.018000 -0.000000 1.000000 0.000000 255 53 24
0.003381 -0.072594 -0.002000 -0.000000 0.000000 -1.000000 255 53 24
0.007500 -0.020000 -0.002000 -0.000000 0.000000 -1.000000 255 53 24
0.003500 -0.073500 -0.002000 -0.000000 0.000000 -1.000000 255 53 24
0.007500 -0.085000 -0.002000 -0.000000 0.000000 -1.000000 255 53 24
0.003031 -0.071750 -0.002000 0.000000 -0.000000 -1.000000 255 53 24
0.002475 -0.071025 -0.002000 0.000000 -0.000000 -1.000000 255 53 24
0.001750 -0.070469 -0.002000 0.000000 0.000000 -1.000000 255 53 24
0.001750 -0.076531 -0.002000 0.000000 -0.000000 -1.000000 255 53 24
0.002475 -0.075975 -0.002000 0.000000 -0.000000 -1.000000 255 53 24
-0.003031 -0.075250 -0.002000 0.000000 -0.000000 -1.000000 255 53 24
-0.002475 -0.075975 -0.002000 0.000000 -0.000000 -1.000000 255 53 24
-0.007500 -0.085000 -0.002000 0.000000 -0.000000 -1.000000 255 53 24
-0.001750 -0.076531 -0.002000 0.000000 0.000000 -1.000000 255 53 24
-0.000906 -0.076881 -0.002000 0.000000 0.000000 -1.000000 255 53 24
-0.000000 -0.077000 -0.002000 0.000000 0.000000 -1.000000 255 53 24
0.000906 -0.076881 -0.002000 0.000000 -0.000000 -1.000000 255 53 24
-0.000906 -0.070119 -0.002000 0.000000 -0.000000 -1.000000 255 53 24
-0.007500 -0.020000 -0.002000 0.000000 -0.000000 -1.000000 255 53 24
-0.000000 -0.070000 -0.002000 0.000000 -0.000000 -1.000000 255 53 24
0.000906 -0.070119 -0.002000 0.000000 0.000000 -1.000000 255 53 24
0.003031 -0.075250 -0.002000 0.000000 0.000000 -1.000000 255 53 24
0.003381 -0.074406 -0.002000 0.000000 -0.000000 -1.000000 255 53 24
-0.001750 -0.070469 -0.002000 0.000000 -0.000000 -1.000000 255 53 24
-0.002475 -0.071025 -0.002000 0.000000 -0.000000 -1.000000 255 53 24
-0.003031 -0.071750 -0.002000 0.000000 0.000000 -1.000000 255 53 24
-0.003381 -0.072594 -0.002000 0.000000 0.000000 -1.000000 255 53 24
-0.003500 -0.073500 -0.002000 0.000000 0.000000 -1.000000 255 53 24
-0.003381 -0.074406 -0.002000 -0.000000 0.000000 -1.000000 255 53 24
-0.007500 -0.030000 0.003000 -0.000000 -0.000000 1.000000 255 53 24
-0.003031 -0.071750 0.003000 -0.000000 -0.000000 1.000000 255 53 24
-0.002475 -0.071025 0.003000 -0.000000 -0.000000 1.000000 255 53 24
-0.001750 -0.070469 0.003000 -0.000000 0.000000 1.000000 255 53 24
-0.000906 -0.070119 0.003000 -0.000000 0.000000 1.000000 255 53 24
0.007500 -0.030000 0.003000 -0.000000 0.000000 1.000000 255 53 24
-0.000000 -0.070000 0.003000 0.000000 -0.000000 1.000000 255 53 24
0.000906 -0.070119 0.003000 -0.000000 -0.000000 1.000000 255 53 24
0.003031 -0.075250 0.003000 -0.000000 -0.000000 1.000000 255 53 24
0.002475 -0.075975 0.003000 -0.000000 -0.000000 1.000000 255 53 24
0.007500 -0.085000 0.003000 -0.000000 -0.000000 1.000000 255 53 24
0.001750 -0.076531 0.003000 -0.000000 0.000000 1.000000 255 53 24
-0.000906 -0.076881 0.003000 -0.000000 -0.000000 1.000000 255 53 24
-0.007500 -0.085000 0.003000 -0.000000 -0.000000 1.000000 255 53 24
-0.000000 -0.077000 0.003000 -0.000000 -0.000000 1.000000 255 53 24
0.000906 -0.076881 0.003000 -0.000000 0.000000 1.000000 255 53 24
-0.001750 -0.076531 0.003000 -0.000000 -0.000000 1.000000 255 53 24
-0.002475 -0.075975 0.003000 -0.000000 -0.000000 1.000000 255 53 24
-0.003031 -0.075250 0.003000 -0.000000 0.000000 1.000000 255 53 24
0.001750 -0.070469 0.003000 -0.000000 -0.000000 1.000000 255 53 24
0.002475 -0.071025 0.003000 -0.000000 -0.000000 1.000000 255 53 24
0.003031 -0.071750 0.003000 -0.000000 0.000000 1.000000 255 53 24
-0.003381 -0.074406 0.003000 -0.000000 0.000000 1.000000 255 53 24
-0.003500 -0.073500 0.003000 0.000000 0.000000 1.000000 255 53 24
-0.003381 -0.072594 0.003000 0.000000 0.000000 1.000000 255 53 24
0.003381 -0.072594 0.003000 0.000000 0.000000 1.000000 255 53 24
0.003500 -0.073500 0.003000 0.000000 -0.000000 1.000000 255 53 24
0.003381 -0.074406 0.003000 -0.000000 0.000000 1.000000 255 53 24
0.007500 -0.085000 -0.002000 0.000000 -1.000000 0.000000 255 53 24
0.007500 -0.085000 0.003000 0.000000 -1.000000 0.000000 255 53 24
-0.007500 -0.085000 -0.002000 0.000000 -1.000000 0.000000 255 53 24
-0.007500 -0.085000 0.003000 0.000000 -1.000000 -0.000000 255 53 24
-0.003500 -0.073500 -0.002000 0.991484 0.130228 0.000000 255 53 24
-0.003500 -0.073500 0.003000 0.991484 0.130228 0.000000 255 53 24
-0.003381 -0.074406 -0.002000 0.991484 0.130228 0.000000 255 53 24
-0.003381 -0.074406 0.003000 0.991484 0.130228 0.000000 255 53 24
-0.003381 -0.074406 -0.002000 0.923724 0.383060 0.000000 255 53 24
-0.003381 -0.074406 0.003000 0.923724 0.383060 0.000000 255 53 24
-0.003031 -0.075250 -0.002000 0.923724 0.383060 0.000000 255 53 24
-0.003031 -0.075250 0.003000 0.923724 0.383060 0.000000 255 53 24
-0.003031 -0.075250 -0.002000 0.793519 0.608546 0.000000 255 53 24
-0.003031 -0.075250 0.003000 0.793519 0.608546 0.000000 255 53 24
-0.002475 -0.075975 -0.002000 0.793519 0.608546 0.000000 255 53 24
-0.002475 -0.075975 0.003000 0.793519 0.608546 0.000000 255 53 24
-0.002475 -0.075975 -0.002000 0.608546 0.793518 0.000000 255 53 24
-0.002475 -0.075975 0.003000 0.608546 0.793518 0.000000 255 53 24
-0.001750 -0.076531 -0.002000 0.608546 0.793518 0.000000 255 53 24
-0.001750 -0.076531 0.003000 0.608546 0.793518 0.000000 255 53 24
-0.001750 -0.076531 -0.002000 0.383059 0.923724 0.000000 255 53 24
-0.001750 -0.076531 0.003000 0.383059 0.923724 0.000000 255 53 24
-0.000906 -0.076881 -0.002000 0.383059 0.923724 0.000000 255 53 24
-0.000906 -0.076881 0.003000 0.383059 0.923724 0.000000 255 53 24
-0.000906 -0.076881 -0.002000 0.130229 0.991484 0.000000 255 53 24
-0.000906 -0.076881 0.003000 0.130229 0.991484 0.000000 255 53 24
-0.000000 -0.077000 -0.002000 0.130229 0.991484 0.000000 255 53 24
-0.000000 -0.077000 0.003000 0.130229 0.991484 0.000000 255 53 24
-0.000000 -0.077000 -0.002000 -0.130229 0.991484 -0.000000 255 53 24
-0.000000 -0.077000 0.003000 -0.130229 0.991484 -0.000000 255 53 24
0.000906 -0.076881 -0.002000 -0.130229 0.991484 -0.000000 255 53 24
0.000906 -0.076881 0.003000 -0.130229 0.991484 -0.000000 255 53 24
0.000906 -0.076881 -0.002000 -0.383059 0.923724 -0.000000 255 53 24
0.000906 -0.076881 0.003000 -0.383059 0.923724 -0.000000 255 53 24
0.001750 -0.076531 -0.002000 -0.383059 0.923724 -0.000000 255 53 24
0.001750 -0.076531 0.003000 -0.383059 0.923724 -0.000000 255 53 24
0.001750 -0.076531 -0.002000 -0.608546 0.793518 -0.000000 255 53 24
0.001750 -0.076531 0.003000 -0.608546 0.793518 -0.000000 255 53 24
0.002475 -0.075975 -0.002000 -0.608546 0.793518 -0.000000 255 53 24
0.002475 -0.075975 0.003000 -0.608546 0.793518 -0.000000 255 53 24
0.002475 -0.075975 -0.002000 -0.793519 0.608546 -0.000000 255 53 24
0.002475 -0.075975 0.003000 -0.793519 0.608546 -0.000000 255 53 24
0.003031 -0.075250 -0.002000 -0.793519 0.608546 -0.000000 255 53 24
0.003031 -0.075250 0.003000 -0.793519 0.608546 -0.000000 255 53 24
0.003031 -0.075250 -0.002000 -0.923724 0.383060 -0.000000 255 53 24
0.003031 -0.075250 0.003000 -0.923724 0.383060 -0.000000 255 53 24
0.003381 -0.074406 -0.002000 -0.923724 0.383060 -0.000000 255 53 24
0.003381 -0.074406 0.003000 -0.923724 0.383060 -0.000000 255 53 24
0.003381 -0.074406 -0.002000 -0.991484 0.130229 -0.000000 255 53 24
0.003381 -0.074406 0.003000 -0.991484 0.130229 -0.000000 255 53 24
0.003500 -0.073500 -0.002000 -0.991484 0.130229 -0.000000 255 53 24
0.003500 -0.073500 0.003000 -0.991484 0.130229 -0.000000 255 53 24
0.003500 -0.073500 -0.002000 -0.991484 -0.130229 -0.000000 255 53 24
0.003500 -0.073500 0.003000 -0.991484 -0.130229 -0.000000 255 53 24
0.003381 -0.072594 -0.002000 -0.991484 -0.130229 -0.000000 255 53 24
0.003381 -0.072594 0.003000 -0.991484 -0.130229 -0.000000 255 53 24
0.003381 -0.072594 -0.002000 -0.923724 -0.383060 -0.000000 255 53 24
0.003381 -0.072594 0.003000 -0.923724 -0.383060 -0.000000 255 53 24
0.003031 -0.071750 -0.002000 -0.923724 -0.383060 -0.000000 255 53 24
0.003031 -0.071750 0.003000 -0.923724 -0.383060 -0.000000 255 53 24
0.003031 -0.071750 -0.002000 -0.793519 -0.608546 -0.000000 255 53 24
0.003031 -0.071750 0.003000 -0.793519 -0.608546 -0.000000 255 53 24
0.002475 -0.071025 -0.002000 -0.793519 -0.608546 -0.000000 255 53 24
0.002475 -0.071025 0.003000 -0.793519 -0.608546 -0.000000 255 53 24
0.002475 -0.071025 -0.002000 -0.608546 -0.793518 -0.000000 255 53 24
0.002475 -0.071025 0.003000 -0.608546 -0.793518 -0.000000 255 53 24
0.001750 -0.070469 -0.002000 -0.608546 -0.793518 -0.000000 255 53 24
0.001750 -0.070469 0.003000 -0.608546 -0.793518 -0.000000 255 53 24
0.001750 -0.070469 -0.002000 -0.383059 -0.923724 -0.000000 255 53 24
0.001750 -0.070469 0.003000 -0.383059 -0.923724 -0.000000 255 53 24
0.000906 -0.070119 -0.002000 -0.383059 -0.923724 -0.000000 255 53 24
0.000906 -0.070119 0.003000 -0.383059 -0.923724 -0.000000 255 53 24
0.000906 -0.070119 -0.002000 -0.130229 -0.991484 -0.000000 255 53 24
0.000906 -0.070119 0.003000 -0.130229 -0.991484 -0.000000 255 53 24
-0.000000 -0.070000 -0.002000 -0.130229 -0.991484 -0.000000 255 53 24
-0.000000 -0.070000 0.003000 -0.130229 -0.991484 -0.000000 255 53 24
-0.000000 -0.070000 -0.002000 0.130229 -0.991484 0.000000 255 53 24
-0.000000 -0.070000 0.003000 0.130229 -0.991484 0.000000 255 53 24
-0.000906 -0.070119 -0.002000 0.130229 -0.991484 0.000000 255 53 24
-0.000906 -0.070119 0.003000 0.130229 -0.991484 0.000000 255 53 24
-0.000906 -0.070119 -0.002000 0.383059 -0.923724 0.000000 255 53 24
-0.000906 -0.070119 0.003000 0.383059 -0.923724 0.000000 255 53 24
-0.001750 -0.070469 -0.002000 0.383059 -0.923724 0.000000 255 53 24
-0.001750 -0.070469 0.003000 0.383059 -0.923724 0.000000 255 53 24
-0.001750 -0.070469 -0.002000 0.608546 -0.793518 0.000000 255 53 24
-0.001750 -0.070469 0.003000 0.608546 -0.793518 0.000000 255 53 24
-0.002475 -0.071025 -0.002000 0.608546 -0.793518 0.000000 255 53 24
-0.002475 -0.071025 0.003000 0.608546 -0.793518 0.000000 255 53 24
-0.002475 -0.071025 -0.002000 0.793519 -0.608546 0.000000 255 53 24
-0.002475 -0.071025 0.003000 0.793519 -0.608546 0.000000 255 53 24
-0.003031 -0.071750 -0.002000 0.793519 -0.608546 0.000000 255 53 24
-0.003031 -0.071750 0.003000 0.793519 -0.608546 0.000000 255 53 24
-0.003031 -0.071750 -0.002000 0.923724 -0.383060 0.000000 255 53 24
-0.003031 -0.071750 0.003000 0.923724 -0.383060 0.000000 255 53 24
-0.003381 -0.072594 -0.002000 0.923724 -0.383060 0.000000 255 53 24
-0.003381 -0.072594 0.003000 0.923724 -0.383060 0.000000 255 53 24
-0.003381 -0.072594 -0.002000 0.991484 -0.130229 0.000000 255 53 24
-0.003381 -0.072594 0.003000 0.991484 -0.130229 0.000000 255 53 24
-0.003500 -0.073500 -0.002000 0.991484 -0.130229 0.000000 255 53 24
-0.003500 -0.073500 0.003000 0.991484 -0.130229 0.000000 255 53 24
3 0 1 2
3 2 1 3
3 4 5 6
3 6 5 7
3 8 9 10
3 10 9 11
3 10 11 12
3 12 11 13
3 12 13 14
3 14 13 15
3 14 15 16
3 16 15 17
3 18 19 20
3 19 21 20
3 22 23 24
3 24 23 25
3 24 25 26
3 26 25 27
3 26 27 28
3 28 27 29
3 28 29 30
3 30 29 31
3 32 33 34
3 34 33 35
3 36 37 38
3 38 37 39
3 40 41 42
3 42 41 43
3 44 45 46
3 46 45 47
3 48 49 50
3 50 49 51
3 48 52 49
3 49 52 53
3 49 53 54
3 55 56 51
3 57 58 59
3 59 58 60
3 60 61 59
3 59 61 62
3 59 62 51
3 51 62 63
3 51 63 55
3 64 65 66
3 66 65 49
3 66 49 67
3 67 49 54
3 56 68 51
3 51 68 69
3 51 69 50
3 64 70 65
3 65 70 71
3 65 71 72
3 72 73 65
3 65 73 74
3 65 74 59
3 59 74 75
3 59 75 57
3 76 77 78
3 78 79 76
3 76 79 80
3 76 80 81
3 81 80 82
3 81 82 83
3 84 85 86
3 86 85 87
3 88 89 90
3 90 89 86
3 90 86 91
3 91 86 87
3 88 92 89
3 89 92 93
3 89 93 94
3 83 95 81
3 81 95 96
3 81 96 97
3 94 98 89
3 89 98 99
3 89 99 76
3 76 99 100
3 76 100 77
3 97 101 81
3 81 101 102
3 81 102 86
3 86 102 103
3 86 103 84
3 104 105 106
3 106 105 107
3 108 109 110
3 110 109 111
3 112 113 114
3 114 113 115
3 116 117 118
3 118 117 119
3 120 121 122
3 122 121 123
3 124 125 126
3 126 125 127
3 128 129 130
3 130 129 131
3 132 133 134
3 134 133 135
3 136 137 138
3 138 137 139
3 140 141 142
3 142 141 143
3 144 145 146
3 146 145 147
3 148 149 150
3 150 149 151
3 152 153 154
3 154 153 155
3 156 157 158
3 158 157 159
3 160 161 162
3 162 161 163
3 164 165 166
3 166 165 167
3 168 169 170
3 170 169 171
3 172 173 174
3 174 173 175
3 176 177 178
3 178 177 179
3 180 181 182
3 182 181 183
3 184 185 186
3 186 185 187
3 188 189 190
3 190 189 191
3 192 193 194
3 194 193 195
3 196 197 198
3 198 197 199
3 200 201 202
3 202 201 203
